<?xml version="1.0" encoding="iso-8859-1"?>
<!-- Generator: Adobe Illustrator 19.0.0, SVG Export Plug-In . SVG Version: 6.00 Build 0)  -->
<svg fill="#fff" version="1.1" id="Capa_1" xmlns="http://www.w3.org/2000/svg" xmlns:xlink="http://www.w3.org/1999/xlink" x="0px" y="0px"
	 viewBox="0 0 512 512" style="enable-background:new 0 0 512 512;" xml:space="preserve">
<g>
	<g>
		<path d="M256,0C114.842,0,0,114.842,0,256s114.842,256,256,256s256-114.842,256-256S397.158,0,256,0z M256,494.933
			C124.254,494.933,17.067,387.746,17.067,256S124.254,17.067,256,17.067S494.933,124.254,494.933,256S387.746,494.933,256,494.933z
			"/>
	</g>
</g>
<g>
	<g>
		<path d="M346.667,223.736l-85.333-68.267c-3.123-2.492-7.552-2.492-10.667,0l-85.333,68.267c-2.79,2.236-3.891,5.973-2.765,9.361
			l34.133,102.4c1.169,3.49,4.429,5.837,8.098,5.837h102.4c3.669,0,6.929-2.347,8.098-5.837l34.133-102.4
			C350.566,229.709,349.457,225.971,346.667,223.736z M301.047,324.267h-90.103l-30.302-90.923L256,173.065l75.358,60.279
			L301.047,324.267z"/>
	</g>
</g>
<g>
	<g>
		<path d="M458.317,99.243c-31.701-40.858-74.308-70.844-123.221-86.724c-2.816-0.904-5.897-0.307-8.149,1.604l-76.459,64.7
			c-1.92,1.621-3.021,4.002-3.021,6.511v76.8c0,2.594,1.178,5.052,3.2,6.664L336,237.065c1.536,1.229,3.422,1.869,5.333,1.869
			c0.905,0,1.818-0.145,2.705-0.435l76.8-25.6c2.543-0.845,4.54-2.85,5.393-5.393l33.442-100.335
			C460.57,104.465,460.066,101.496,458.317,99.243z M411.392,198.059l-68.352,22.784l-78.507-62.805l0.008-68.745l69.769-59.034
			c42.351,14.669,79.428,40.789,107.716,75.887L411.392,198.059z"/>
	</g>
</g>
<g>
	<g>
		<path d="M261.504,78.822l-76.459-64.7c-2.261-1.911-5.342-2.517-8.149-1.604c-48.905,15.881-91.52,45.867-123.213,86.724
			c-1.749,2.244-2.253,5.222-1.357,7.927l33.442,100.335c0.853,2.543,2.85,4.54,5.402,5.393l76.8,25.6
			c0.879,0.29,1.792,0.435,2.697,0.435c1.911,0,3.797-0.64,5.325-1.869l85.333-68.267c2.022-1.621,3.2-4.07,3.2-6.664v-76.8
			C264.525,82.825,263.424,80.444,261.504,78.822z M247.467,158.029l-78.507,62.805l-68.352-22.784l-30.635-91.913
			c28.288-35.089,65.365-61.21,107.716-75.887l69.777,59.034V158.029z"/>
	</g>
</g>
<g>
	<g>
		<path d="M212.898,330.086l-34.133-102.4c-0.845-2.543-2.85-4.54-5.393-5.393l-76.8-25.6c-2.543-0.845-5.333-0.452-7.535,1.067
			L3.891,256.299c-2.389,1.647-3.78,4.386-3.695,7.287c1.391,47.778,16.026,94.003,42.317,133.666
			c1.579,2.381,4.25,3.814,7.108,3.814h112.512c2.756,0,5.342-1.331,6.946-3.593l42.667-59.733
			C213.333,335.522,213.76,332.681,212.898,330.086z M157.739,384H54.255c-22.153-34.85-34.825-74.863-36.83-116.292l77.773-53.47
			l68.719,22.912l31.411,94.225L157.739,384z"/>
	</g>
</g>
<g>
	<g>
		<path d="M508.288,256.316l-85.146-58.539c-2.202-1.51-4.992-1.903-7.535-1.067l-76.8,25.6c-2.543,0.845-4.54,2.85-5.393,5.393
			l-34.133,102.4c-0.862,2.586-0.435,5.436,1.152,7.654l42.667,59.733c1.604,2.244,4.19,3.576,6.946,3.576h112.512
			c2.859,0,5.53-1.434,7.1-3.797c26.3-39.671,40.926-85.888,42.325-133.666C512.068,260.702,510.677,257.954,508.288,256.316z
			 M457.924,384H354.441l-37.589-52.625l31.411-94.225l68.719-22.912l77.773,53.47C492.757,309.137,480.077,349.15,457.924,384z"/>
	</g>
</g>
<g>
	<g>
		<path d="M356.804,387.576l-42.667-59.733c-1.604-2.244-4.19-3.576-6.946-3.576h-102.4c-2.748,0-5.333,1.331-6.938,3.576
			l-42.667,59.733c-1.587,2.219-2.014,5.06-1.152,7.654l34.577,103.731c0.922,2.782,3.217,4.89,6.059,5.589
			C214.775,509.5,235.409,512,256,512s41.224-2.5,61.32-7.45c2.85-0.7,5.137-2.807,6.059-5.589l34.577-103.731
			C358.818,392.644,358.391,389.794,356.804,387.576z M308.693,489.054c-34.637,7.808-70.741,7.808-105.395,0l-31.701-95.095
			l37.589-52.625h93.619l37.589,52.625L308.693,489.054z"/>
	</g>
</g>
<g>
	<g>
		<path d="M204.809,493.559l-34.577-103.731c-1.169-3.49-4.42-5.837-8.098-5.837H49.621c-3.14,0-6.033,1.732-7.518,4.497
			c-1.493,2.773-1.34,6.135,0.401,8.755c35.695,53.837,89.737,91.947,152.166,107.307c0.674,0.171,1.357,0.247,2.039,0.247
			c2.347,0,4.634-0.973,6.272-2.748C205.09,499.763,205.79,496.512,204.809,493.559z M66.176,401.067h89.805l27.546,82.637
			C136.858,468.89,96.026,440.132,66.176,401.067z"/>
	</g>
</g>
<g>
	<g>
		<path d="M470.34,388.489c-1.485-2.765-4.378-4.497-7.518-4.497H350.31c-3.678,0-6.938,2.355-8.098,5.837L307.635,493.56
			c-0.981,2.953-0.282,6.204,1.826,8.491c1.638,1.775,3.925,2.748,6.272,2.748c0.674,0,1.357-0.077,2.039-0.247
			c62.438-15.36,116.471-53.47,152.166-107.307C471.671,394.624,471.825,391.262,470.34,388.489z M328.917,483.704l27.546-82.637
			h89.813C416.427,440.141,375.586,468.89,328.917,483.704z"/>
	</g>
</g>
<g>
	<g>
		<path d="M339.516,18.466c-0.614-3.021-2.825-5.478-5.768-6.409c-50.261-16.009-105.242-16.009-155.503,0
			c-2.935,0.93-5.146,3.388-5.769,6.409c-0.614,3.029,0.444,6.153,2.773,8.175l75.162,65.143c1.604,1.382,3.601,2.082,5.589,2.082
			c1.988,0,3.985-0.7,5.581-2.082l75.162-65.143C339.081,24.619,340.139,21.487,339.516,18.466z M255.992,74.044l-57.626-49.946
			c37.623-9.344,77.645-9.344,115.251,0L255.992,74.044z"/>
	</g>
</g>
<g>
	<g>
		<path d="M101.965,202.095L68.523,101.76c-0.998-2.987-3.558-5.18-6.665-5.709c-3.115-0.512-6.246,0.7-8.175,3.183
			C18.56,144.495,0,198.699,0,256c0,1.698,0.06,3.388,0.111,5.077l0.068,2.022c0.077,3.115,1.86,5.939,4.642,7.364
			c1.22,0.623,2.551,0.93,3.883,0.93c1.69,0,3.362-0.495,4.813-1.485l85.163-58.061
			C101.828,209.698,103.177,205.713,101.965,202.095z M17.237,246.716c1.69-44.604,15.505-86.938,40.346-123.785l26.146,78.455
			L17.237,246.716z"/>
	</g>
</g>
<g>
	<g>
		<path d="M458.317,99.234c-1.929-2.483-5.069-3.703-8.175-3.183c-3.098,0.529-5.658,2.722-6.656,5.709l-33.442,100.335
			c-1.203,3.627,0.137,7.603,3.285,9.754l85.154,58.061c1.442,0.981,3.123,1.485,4.804,1.485c1.331,0,2.662-0.307,3.891-0.93
			c2.773-1.417,4.557-4.241,4.642-7.364l0.068-2.057c0.06-1.673,0.111-3.354,0.111-5.043
			C512,198.707,493.431,144.495,458.317,99.234z M428.262,201.387l26.146-78.455c24.849,36.847,38.665,79.189,40.346,123.785
			L428.262,201.387z"/>
	</g>
</g>
<g>
</g>
<g>
</g>
<g>
</g>
<g>
</g>
<g>
</g>
<g>
</g>
<g>
</g>
<g>
</g>
<g>
</g>
<g>
</g>
<g>
</g>
<g>
</g>
<g>
</g>
<g>
</g>
<g>
</g>
</svg>
